<svg xmlns="http://www.w3.org/2000/svg" viewBox="0 0 64 64">
  <defs>
    <linearGradient id="goldF" x1="0%" y1="100%" x2="100%" y2="0%">
      <stop offset="0%" style="stop-color:#B8944D"/>
      <stop offset="50%" style="stop-color:#C9A55C"/>
      <stop offset="100%" style="stop-color:#D4B76A"/>
    </linearGradient>
    <linearGradient id="greenF" x1="50%" y1="100%" x2="50%" y2="0%">
      <stop offset="0%" style="stop-color:#1a3d2e"/>
      <stop offset="100%" style="stop-color:#2D5A47"/>
    </linearGradient>
  </defs>

  <!-- Caule -->
  <path d="M 35 38 C 30 48, 22 56, 12 62"
        fill="none" stroke="#2D5A47" stroke-width="2.5" stroke-linecap="round"/>

  <!-- Folhas -->
  <path d="M 14 58 C 6 50, 8 38, 18 32 C 14 42, 14 52, 14 58 Z" fill="url(#greenF)"/>
  <path d="M 22 50 C 12 42, 14 28, 28 22 C 22 32, 22 44, 22 50 Z" fill="url(#greenF)"/>
  <path d="M 32 42 C 22 36, 24 22, 38 16 C 32 26, 32 36, 32 42 Z" fill="url(#greenF)"/>

  <!-- Flor - pétalas em contorno -->
  <path d="M 22 35 C 16 26, 16 14, 26 4 C 28 16, 28 26, 28 35"
        fill="none" stroke="url(#goldF)" stroke-width="2" stroke-linecap="round"/>
  <path d="M 48 35 C 54 26, 54 14, 44 4 C 42 16, 42 26, 42 35"
        fill="none" stroke="url(#goldF)" stroke-width="2" stroke-linecap="round"/>
  <path d="M 28 36 C 26 28, 28 16, 35 5 C 38 16, 40 28, 38 36"
        fill="none" stroke="url(#goldF)" stroke-width="2" stroke-linecap="round"/>
  <path d="M 42 36 C 44 28, 42 16, 35 5 C 32 16, 30 28, 32 36"
        fill="none" stroke="url(#goldF)" stroke-width="2" stroke-linecap="round"/>
  <path d="M 32 38 C 30 30, 32 18, 35 6 C 38 18, 40 30, 38 38"
        fill="none" stroke="url(#goldF)" stroke-width="2.5" stroke-linecap="round"/>
</svg>