<svg xmlns="http://www.w3.org/2000/svg" viewBox="0 0 80 100">
  <defs>
    <linearGradient id="goldS" x1="0%" y1="100%" x2="100%" y2="0%">
      <stop offset="0%" style="stop-color:#B8944D"/>
      <stop offset="50%" style="stop-color:#C9A55C"/>
      <stop offset="100%" style="stop-color:#D4B76A"/>
    </linearGradient>
    <linearGradient id="greenS" x1="50%" y1="100%" x2="50%" y2="0%">
      <stop offset="0%" style="stop-color:#1a3d2e"/>
      <stop offset="100%" style="stop-color:#2D5A47"/>
    </linearGradient>
  </defs>

  <!-- Caule -->
  <path d="M 45 48 C 40 58, 30 72, 18 85 C 12 92, 6 96, 2 98"
        fill="none" stroke="#2D5A47" stroke-width="2.5" stroke-linecap="round"/>

  <!-- Folhas -->
  <path d="M 8 90 C 0 78, 4 62, 16 55 C 12 68, 10 80, 8 90 Z" fill="url(#greenS)"/>
  <path d="M 18 78 C 6 66, 10 48, 26 40 C 20 52, 18 66, 18 78 Z" fill="url(#greenS)"/>
  <path d="M 30 65 C 16 55, 20 38, 38 30 C 32 42, 30 55, 30 65 Z" fill="url(#greenS)"/>
  <path d="M 45 68 C 54 58, 68 52, 78 48 C 66 56, 54 64, 45 68 Z" fill="url(#greenS)"/>

  <!-- Caules folhas -->
  <path d="M 25 85 C 20 78, 16 70, 20 62" fill="none" stroke="#2D5A47" stroke-width="1.5" stroke-linecap="round"/>

  <!-- Flor - pétalas contorno -->
  <path d="M 30 44 C 22 32, 20 18, 32 4 C 36 18, 38 32, 40 44"
        fill="none" stroke="url(#goldS)" stroke-width="2" stroke-linecap="round"/>
  <path d="M 68 44 C 76 32, 78 18, 66 4 C 62 18, 60 32, 58 44"
        fill="none" stroke="url(#goldS)" stroke-width="2" stroke-linecap="round"/>
  <path d="M 38 46 C 34 36, 36 22, 45 6 C 50 22, 52 36, 52 46"
        fill="none" stroke="url(#goldS)" stroke-width="2" stroke-linecap="round"/>
  <path d="M 60 46 C 64 36, 62 22, 53 6 C 48 22, 46 36, 46 46"
        fill="none" stroke="url(#goldS)" stroke-width="2" stroke-linecap="round"/>
  <path d="M 44 48 C 42 38, 46 22, 49 4 C 52 22, 56 38, 54 48"
        fill="none" stroke="url(#goldS)" stroke-width="2.5" stroke-linecap="round"/>
</svg>